<svg id="Layer_1" data-name="Layer 1" xmlns="http://www.w3.org/2000/svg" viewBox="0 0 9896.08 5472.29"><defs><style>.cls-1,.cls-2,.cls-3{fill:#fff;}.cls-1,.cls-2,.cls-3,.cls-4,.cls-5{stroke:#fff;}.cls-1,.cls-2{stroke-miterlimit:10;}.cls-1{fill-rule:evenodd;}.cls-3{stroke-miterlimit:3.63;stroke-width:0.45px;}.cls-4,.cls-5{fill:none;}.cls-4{stroke-linecap:round;stroke-linejoin:round;}.cls-5{stroke-miterlimit:9.09;}</style></defs><path class="cls-1" d="M5521.51,4732.51l-100.93,226.07h67.54l19.2-46.87h99.23l19.2,46.87h67.54l-101.18-226.07Zm35.85,53.23,17.13,43,17.13,41.61-34.15,2.76h-34.16l17-44.28,17-43.09Zm453.8-53.23-100.93,226.07h67.54l19.2-46.87h99.23l19.2,46.87h67.54l-101.18-226.07Zm35.85,53.23,17.13,43,17.13,41.61-34.15,2.76H6013l17-44.28,17-43.09Zm152.62-56H6275l48.19,72.47,51.09-72.47h74.28l-89.5,110.15,95.3,118.68H6379l-54.71-77.37-53.62,77.37h-80.45L6287.32,4841Z"/><path class="cls-2" d="M5883,4636l-89.77,88.29,30.9,28,29.24-28h2.05v168.14a38.63,38.63,0,0,1-38.63,38.64h-30.26a38.63,38.63,0,0,1-38.63-38.64v-19.26H5690v21.13a69.84,69.84,0,0,0,69.85,69.84H5838a69.84,69.84,0,0,0,69.84-69.84v-170h2.5l34.14,28,26.86-28L5883,4636Z"/><path class="cls-2" d="M5718.37,4854.86l89.77-88.29-30.91-28L5748,4768.35h-2.87v-170.9a38.64,38.64,0,0,1,38.64-38.64H5814a38.64,38.64,0,0,1,38.64,38.64v19.26h57.9v-21.13a69.84,69.84,0,0,0-69.85-69.84h-78.1a69.84,69.84,0,0,0-69.85,69.84v170h-1.67l-34.15-27-26.85,28,88.28,88.29Z"/><path class="cls-3" d="M5764,4521.59a69.85,69.85,0,0,0-69.85,69.85v170h-3.05l-34.15-28.37-26.85,28,88.29,88.29,89.77-88.29-30.91-28L5748,4764.2h-1.49V4593.31a38.63,38.63,0,0,1,38.64-38.63h30.25a38.63,38.63,0,0,1,38.64,38.63v19.27h57.9v-21.13a69.85,69.85,0,0,0-69.85-69.85H5764Zm119,108.84-89.77,88.3,30.9,28,29.24-26.59h3.43v165.38a38.63,38.63,0,0,1-38.63,38.64h-30.26a38.64,38.64,0,0,1-38.64-38.64v-19.26h-60.65v23.89a69.85,69.85,0,0,0,69.85,69.85h78.1a69.85,69.85,0,0,0,69.85-69.85V4717.35h3.87l34.14,29.35,26.86-28-88.29-88.3Zm316.63,95.18,87.68,111.24-97.11,117.59h80.44l53.62-77.38,54.72,77.38h75.37l-95.3-118.68,89.49-110.15h-74.28l-51.09,72.47L6275,4725.61Zm-678.12,0-100.93,226.07h67.54l19.2-46.87h99.23l19.2,46.87h67.54l-101.18-226.07Zm489.65,0-100.93,226.07h67.54l19.2-46.87h99.23l19.2,46.87h67.54l-101.18-226.07Zm-453.8,54.62,17.13,43,17.13,43-34.15,2.76h-34.16l17-45.66,17-43.09Zm489.65,0,17.13,43,17.13,43-34.15,2.76H6013l17-45.66,17-43.09Z"/><path class="cls-1" d="M7763.8,4062.49c-45.89,0-79.84,40.14-78.32,83.68,1.46,41.83-.43,96-14.08,140.18s-36.84,72.38-74.64,76V4403c37.81,3.61,60.95,31.68,74.64,76s15.54,98.35,14.08,140.18c-1.52,43.53,32.43,83.68,78.33,83.68H8234c45.89,0,79.84-40.14,78.32-83.68-1.46-41.83.43-96,14.08-140.18s36.78-72.38,74.59-76v-40.68c-37.81-3.6-60.89-31.68-74.59-76s-15.54-98.35-14.08-140.18c1.52-43.53-32.43-83.68-78.32-83.68Zm378.86,394.23c0,60-44.8,96.36-119.17,96.36H7897.11a13.87,13.87,0,0,1-5.22-.94,13.68,13.68,0,0,1-8.62-12.69V4226.13a13.91,13.91,0,0,1,.94-5.19,13.7,13.7,0,0,1,12.72-8.65h125.85c62,0,102.69,33.54,102.69,85,0,36.14-27.37,68.49-62.25,74.15v1.89C8110.7,4378.55,8142.66,4411.37,8142.66,4456.72Zm-133.21-201.21h-71.89v101.54h60.55c46.81,0,72.61-18.85,72.61-52.54C8070.71,4272.94,8048.53,4255.51,8009.45,4255.51Zm-71.89,141.75v112.58h75c49,0,75-19.67,75-56.64s-26.7-55.95-78.15-55.95Z"/><path class="cls-2" d="M357,1954.16a12.79,12.79,0,0,1-8.79-3.5L118,1732.77a12.82,12.82,0,0,1-4-9.31V1506.64a12.82,12.82,0,0,1,12.82-12.82H325.28L118,1298.07a12.82,12.82,0,0,1,8.79-22.14H587.14a12.75,12.75,0,0,1,12.75,12.76v216.92a12.75,12.75,0,0,1-12.75,12.76h-198l206.78,195.75a12.82,12.82,0,0,1-8.78,22.14H369.73v205.07A12.8,12.8,0,0,1,357,1954.16ZM139.57,1718l204.59,193.75V1723.52A12.81,12.81,0,0,1,357,1710.7H555L351.86,1518.38H139.57Zm221.9-224.16H574.33V1301.51H157.83Z"/><path class="cls-4" d="M2238.55,3470.73c-175.68-.09-318.18,142.26-318.27,317.94a318.1,318.1,0,0,0,217.65,302c16,3,21.75-6.81,21.75-14.8v-54c-88.77,19.24-107.12-42.61-107.12-42.61a84.42,84.42,0,0,0-36-47.2c-28.85-19.68,2.22-19.38,2.22-19.38a66.86,66.86,0,0,1,48.67,32.85c28.41,48.67,74,34.62,92.62,26.48a68.17,68.17,0,0,1,20.26-42.61c-70.72-8-145-35.22-145-157.13a122.66,122.66,0,0,1,32.85-85.37,113.63,113.63,0,0,1,3.11-84.18s26.63-8.58,87.44,32.55a302.76,302.76,0,0,1,159.19,0c60.81-41.12,87.44-32.55,87.44-32.55a114.52,114.52,0,0,1,3.11,84.18,122.5,122.5,0,0,1,32.69,85.37c0,122.22-74,149-145.14,157a75.71,75.71,0,0,1,21.6,59.18v87.29c0,10.5,5.77,18.35,21.9,14.8,166.61-55.72,256.5-235.95,200.79-402.56a318.07,318.07,0,0,0-301.82-217.21"/><path class="cls-4" d="M440.79,556.8a55.15,55.15,0,0,0,0,72.44L784.92,973.37a55.14,55.14,0,0,0,72.45,0l343.94-344.13a54.77,54.77,0,0,0,0-72.44L857.37,212.66a51.52,51.52,0,0,0-36.32-13.45h0a51.15,51.15,0,0,0-36.13,13.64Z"/><line class="cls-4" x1="865.82" y1="474.75" x2="939.22" y2="548.15"/><line class="cls-4" x1="694.23" y1="303.16" x2="776.28" y2="385.21"/><circle class="cls-4" cx="821.05" cy="754.52" r="63.41"/><circle class="cls-4" cx="821.05" cy="429.98" r="63.41"/><circle class="cls-4" cx="984" cy="592.92" r="63.41"/><line class="cls-4" x1="821.37" y1="691.46" x2="821.37" y2="493.16"/><path class="cls-2" d="M1390.13,2869.48c-13.77-2.41-28.05-8.95-36.14-16.19a31.82,31.82,0,0,1-8.79-21.34c0-8.09,4.13-19.46,10.68-30.79a87.34,87.34,0,0,0,9.29-20.49,166.49,166.49,0,0,1,6.54-18.24l4-9.45,1-63.14c.52-34.92,1.55-67.27,2.41-72.29a225.32,225.32,0,0,1,11-42.32l3.79-9.12-5.51-3.27c-5-3.11-9.12-7.4-25.48-26.86-20.12-23.75-46.62-36.84-84.15-41.29-12.23-1.19-24.62-2.09-37-2.58-55.08-2.57-86.57-14.11-115-42-21.18-20.82-32.18-45.1-36.65-80.88-6-48.37-12.71-73.15-25.11-93.28a91.89,91.89,0,0,0-10.51-13.94l-5-5-11,7.07c-6,4-14.47,9-18.6,11.2a371.35,371.35,0,0,0-39.42,25.11c-30.79,22.37-64.36,50.43-82.77,68.83-8.26,8.26-12.55,11.86-14.47,11.53-12.56-1.88-2.94-56.27,17.55-97.24C927,2230.7,971.05,2182,1022,2149.12c41.83-27,109.46-64.2,140.75-77.28,55.57-23.23,127.51-48.38,176.73-61.79,10.35-2.94,16.69-5.51,21-8.42,9.65-6.71,19.1-10,29.94-10.14,9.11-.16,10-.33,18.76-6.21,10.35-6.71,13.42-7.08,23.76-3.44l6.71,2.41,8.26-5.68,8.26-5.52,11.87.16c9.11.16,13.25-.16,17.21-1.88,5-2.24,5.16-2.57,6.54-10.84,3.11-17.91,3.44-26.85,1.56-37.69-2.42-14.28-2.75-69.68-.34-80.55,2.58-11.69,4.3-14.11,13.09-18.41,13.08-6.38,22.89-8.26,45.43-8.26,27.52,0,41.46,3.8,51.81,13.78,9.29,9,10.84,29.94,6,79.16-2.94,28.39-3.27,36.32-2.41,54.88.33,11.86,1.19,23.06,1.55,24.61.7,2.94,1.39,3.11,11.36,3.27,9.81.17,11.53.7,20.82,5.52,9,4.66,15.66,10.35,17,14.47.16.86,1.72.86,4.45,0,5.33-1.55,10,.16,13.78,4.82,2.25,2.94,3.6,3.44,8.79,3.44,7.07,0,9.65,1.72,15.49,10.35a25.79,25.79,0,0,0,10.84,8.78c9.65,4.83,22.73,18.25,27.72,28.91a71.14,71.14,0,0,1,4.46,50.76c-1.72,6.21-1.72,6.38,1.88,12.38,7.57,12.92,10.35,28.75,7.24,42.16l-1.72,7.93,5.15,5.16c25.64,25.63,21.84,67.46-9.45,104.8a66.44,66.44,0,0,0-8.78,13.95c-6,16-12.93,27.19-21.85,36.48l-9.11,9.28h-9.29c-9.29,0-22.37-3.11-30.3-7.23-3.27-1.72-3.44-1.72-2.74.33,2.08,7.56,7.23,38.35,9,55.41,2.75,26.16,1.88,64.2-1.72,80.55a125.17,125.17,0,0,1-13.08,34.59c-3.44,5.52-3.6,6.71-2.94,13.42,1,9.44-1.19,25.31-5,35.78-4.66,12.22-6.38,17.91-7.41,24.09-.85,5.32-.85,5.32,2.94,5.32,5,0,7.74,2.94,7.74,8.78,0,2.58-2.25,16.53-5,30.79-7.57,40.11-8.09,44.58-8.09,83.46-.16,40.11-.16,39.75,8.95,45.76l20.49,13.25a284.35,284.35,0,0,0,56.27,28.91c28.75,11.36,32.71,14.28,32.71,23.92,0,4.3-.85,5.85-4.45,9.29-11,10.67-32.72,13.08-76.43,8.42-22.73-2.08-45.59-3.27-68.32-3.27-60.24-.86-69-2.94-76.92-17.91-4.46-8.59-3.6-19.8,2.58-38.2q4.11-12.13,7.23-24.78c4.13-20,1.39-43.71-8.26-70.55l-8.26-22.89c-8.09-23.22-12.56-65.75-7.74-75.36.86-1.89,2.42-2.25,6.54-2.09l5.16.53,4.29-9c3.27-7.07,6.87-11.69,16.68-21.51l12.56-12.56-.69-8.09c-.53-7.74-10.68-45.26-12.06-45.1-.53,0-3.27,3.79-6.38,8.59-7.57,11.36-24.25,28.91-33.73,35.29-4.13,2.74-7.57,6-7.57,7.07-.16,4.66-4.12,13.78-9,20.13-4.66,6.21-5,7.23-4.3,12.72,1.19,8.09-1.39,34.06-4.45,47.67a155.05,155.05,0,0,1-11.37,29.24c-11.86,24.61-20.81,46.62-23.06,56.79a250.1,250.1,0,0,0-3.11,29.61c-.52,11.69-1.72,23.06-2.58,25.48-1.18,3.27-1.18,5.84-.16,10.83.86,3.6,1.39,11.7,1.19,18.08-.16,8.78.53,14.47,3.11,24.78,4.46,17.55,5.32,28.58,3.27,35.12-1.39,4.12-2.75,5.68-7.41,7.93-10.34,5.32-39.58,8.26-55.41,5.51Zm42.64-14.52c6-1.71,11.18-6.86,11.18-11.51,0-2.08-1.71-8.09-3.79-13.4-4.13-10.12-11.19-37-11.19-41.41,0-2.24.17-2.4,3.6-.52l3.79,2.07v-4.81a67.41,67.41,0,0,0-2.94-13.06c-3.26-9.8-3.59-10-24.41-11.19l-14.09-.69-5.14,5a52.56,52.56,0,0,0-7.39,9.63c-2.24,4.46-3.1,11.19-1.71,12.7.33.53,3.8,0,7.56-.85a28.9,28.9,0,0,1,6.86-1.19,78.36,78.36,0,0,1-8.57,6.53c-20.63,15.48-27.85,24.91-27.85,37,0,12.54,11.85,22.34,30.42,25.28,12.7,1.88,37.44,2.41,43.65.52Zm278.81-20.62c5.15-6.2,4.46-12.54-2.07-19.76a54.43,54.43,0,0,0-12.9-9.63c-4.81-2.58-9.63-5.51-14.44-8.58-3.8-2.74-15.8-9.79-26.83-15.8-7.92-4.29-15.64-8.78-23.19-13.56l-3.1-2.4v-47.25c0-46.55-.16-47.24-2.57-46.55-12,3.26-32,4.81-57.21,4.29l-27.32-.33,4,9.63c7.39,18.21,11.18,42.63,11.18,70.64,0,10.49-.69,14.25-3.26,21.64-1.39,3.59-2.58,7.23-3.8,10.82-.52,1.55,1.39,2.74,8.42,4.82a116.14,116.14,0,0,0,17,3.59l7.92.86-.85,7.92c-.86,8.94.16,18.38,2.4,21.31,1.39,1.71,6.53,2.41,30.42,3.43,18.05.86,37.64,2.74,53.08,5,13.4,2.08,27.84,3.8,32.14,3.8,7.23.16,7.92-.16,11-3.8Zm-275.08-80.23c.69-.53,1.71-9.8,2.07-20.79,1.39-30.74,2.58-35.23,18-69.94,12.7-28.34,19.43-54.8,18.9-73.53l-.33-11.19-4.81,4.65c-10,10-3.1-5.67,8.78-19.59,8.94-10.66,12-16.5,13.39-25.94.7-3.8,2.08-5.68,7.93-10.12,22.17-16.83,38.13-38.14,48.62-64.27,2.41-6.2,8.58-27.32,13.76-46.91,9.64-36.26,14.78-51.9,19.43-58.59,1.71-2.58,2.41-3.11,2.08-1.39-2.74,10.32-3.6,14.61-5.84,28-1.39,8.41-4,24.91-5.68,36.42-3.26,23.56-6.69,38.67-11.34,50.35l-3.11,7.92,8.25,21.31c8.57,21.81,12.54,37.64,13.23,52.92l.52,8.57-6.69,1.39a34.73,34.73,0,0,0-22,13.76c-5.83,8.42-9.11,15.31-7.55,16.83.69.7,9.1,2.25,18.74,3.43,14.94,1.71,20.62,1.71,40.38.53a241.53,241.53,0,0,0,25.43-2.41c1.88-.69,3.8-4.46,6.87-14.25,7-22.5,8.41-30.42,7.55-46.22l-.69-13.92,3.59-4.65c8.42-10.66,15-29.89,17.69-52.42,3.26-27.49-2.74-85.05-13.93-134.54-5.31-23.56-7.55-37.65-7.55-47.94v-9.11l-8.42.86c-30.25,3.26-66.84,2.4-89.17-2.25-12.21-2.41-43-11.51-49.65-14.45l-5.32-2.4-.69,6c-.53,3.26-1,6.53-1.71,10-1,3.59-.7,4.46,5.67,10.66,7.93,8.08,10.33,12.21,10.33,17.68,0,3.43-1.88,6.2-11.51,16.17-7.06,7.39-16,15.31-22.86,19.76l-11.19,7.55-4.81,16.66c-17.19,61-20.45,116.49-9.11,156.18l2.74,10-5.51,6.87c-20.62,25.93-32.82,45.69-34.7,56.71-.33,2.24-2.08,9.43-3.8,16.16-4.45,17-7.92,41.93-9.44,68.92-1,22.5-2.57,45.2-4.45,67.7l-.86,6.69,8.58,2.58a137.28,137.28,0,0,0,16.16,3.95c7.72,1.19,22,.86,24.22-.33Zm167-94.52c13.4-.86,25.61-2.94,28-5,1-.69,2.24-4.28,2.57-7.92l.86-6.53-10.66,2.41A216.08,216.08,0,0,1,1599,2646a427.13,427.13,0,0,1-60.83-1.71c-6.69-1-6.69-1-4.65,7.71,1.71,6.54,2.07,6.87,19.59,8.09,11.68,1,28,.85,50.35-.53Zm-11.18-29.89c17.52-1.55,39.36-5.31,43.65-7.56,1.39-.69,2.58-3.26,3.1-6.2l1.55-9.11.86-4.28-4.29.85c-19.07,4-33.52,5.15-62.38,5.15-28.18,0-31.45-.17-38.83-2.74a27,27,0,0,0-8.94-2.08c-1.19.7-1.39,10.49-.33,17.36.69,4.12,1.39,4.81,5.5,6,13.07,3.59,35.07,4.46,60.14,2.41Zm-318.9-155c44-12.7,101.55-50,148.63-96.73,15.31-15.31,17.19-17.36,19.23-24.22L1444,2345c.33-.69-2.41-1.88-6-2.73-9.44-2.25-16.65-7.72-16.65-12.7,0-2.94-1.72-5.84-6.7-11.19-8.08-9.11-10.12-13.06-11-21.81l-.69-7.05-9.64-6.87c-5.5-3.95-24.74-14.61-45.2-24.91-15.47-7.56-30.75-15.8-45.69-24.74-17.19-11.51-28.71-25.27-35.24-41.57-1.19-3.26-2.74-6-3.26-6-1.39,0-40,37.28-56.55,54.8-40.71,43-68.72,80.24-86.44,114.78-4.46,8.57-9.27,18.74-10.66,22.5l-2.57,6.87,3.1,11.51a160.61,160.61,0,0,0,8.94,22.34c10.82,21.3,23.72,34.17,45,44.66,22.86,11.35,43.12,15.31,77,14.78,18.2-.16,23.55-.69,31.6-3.1ZM926.33,2324c28.87-25.6,68.73-53.6,117.56-82.64,32-19.07,155.51-80.93,212.39-106.2,10.33-4.65,19.6-8.94,20.62-9.44,1-.69,4-8.08,6.7-16.32,12-38.14,18-45.7,39.85-50.68,2.74-.7,3.44-1.55,3.44-4.29,0-5,3.43-16.49,6.37-21.64,2.24-4,2.24-4.12.33-3.59-1.19.33-8.42,2.41-16,4.65-104.82,30.26-196.4,70.44-275.45,120.62-84.35,53.61-133,117.88-147.08,194.85l-1,5.68,10.33-10.13c5.5-5.68,15.47-14.94,22-20.62Zm777.93,14.61c8.41-4.29,21.47-24.05,26.29-39.69a34.38,34.38,0,0,1,8.08-14.94c12.7-14.09,23.19-39.69,23.36-57.21,0-27.32-15.47-37.81-38-26.13-2.94,1.39-5.31,2.41-5.67,2.07-1.19-1.18,5.14-7.38,12.89-12.2,10.13-6.7,12-10.66,12-24.91,0-12-2.94-21.64-9.79-32.3-3.1-4.65-4.29-7.72-3.8-9.64l3.1-11.51c4.29-15.31,2.74-32.82-4-44-10-16.83-22.18-25.08-39.2-26.47l-10-.69,5.84,6.53c17.35,18.74,25.76,42.26,22.33,62.39-1.71,10.33-3.26,12.37-13.23,16.32l-5.83,2.41.69,7.92c1.19,12.9-1,22.34-9.27,39.69-4.12,8.78-7.23,16.66-6.86,17.52,1,2.94,12.37,8.42,21.31,10.66l8.78,2.08-5.51,1.88c-7.23,2.24-8.78,5.5-8.78,17.35,0,10.82,1.55,15.31,9.44,27.15,3.59,5.15,6,10.49,6.37,13.56.7,4.81.53,5.14-3.43,6.53a62.66,62.66,0,0,1-13.76,2.25c-16.17,1-17.35,1.55-24.58,8.41-6.53,6.2-6.69,6.54-6.69,13.4,0,9.44,3.59,28.53,5.83,31.11,2.94,3.1,19.24,11.18,25.61,12.37a23.25,23.25,0,0,0,16.33-1.88v-.06Zm-238.39-13.23c10.49-8.25,18.75-16.5,23.36-23.56,2.94-4.29,3.1-5.14,1.71-8.78-2.4-5.5-18.2-19.76-27-24.05a68.09,68.09,0,0,0-18.38-5.31l-10.82-1.39-6.69-8.42c-13.92-17.19-21.64-30.58-32.67-56.54-9.63-22-18-34.88-31.44-47.61-5.5-5.15-9.44-9.44-9.11-9.44.7,0,7.23,3.26,14.78,7.23,12.54,6.69,14.09,7.22,19.76,6.37,20.45-2.41,38.5-25.94,45-58.92,1.88-9.27,5.68-18.74,9.64-24.41.16-.16,8.08,5,17.35,11.67,23.55,16.66,28.7,19.24,42.1,19.76,8.78.33,13.76-.33,29.56-4.12,33.69-8.25,70.11-11.52,92.28-8.58,12.54,1.71,30.59,7.23,44,13.56s15.8,6.53,20.09,2.73c3.59-3.1,3.59-3.59,3.59-15.1-.16-17-6.37-35.4-15.8-46.39-4.81-5.68-18.38-14.95-31.8-22-4.82-2.57-9.64-5.14-14.26-7.71-6.37-3.8-13.55-3.27-33.15,1.88-22.7,5.83-28.71,5.83-54.63-.86-22-5.51-23.36-5.68-45-2.24-11.51,1.71-40.38.69-50-1.89-4.81-1.38-9.63-2.73-14.25-4.45-8.42-3.26-23-3.8-36.26-1.39-26.29,4.65-46.22,18.9-53.44,38.3-3.8,9.8-3.27,14.45,1.71,17.53,7.92,5,18.38,18.57,18.38,23.88,0,.33-2.58-1.88-5.51-5-7.39-7.72-14.09-11.19-22-11.19a27.54,27.54,0,0,0-24.21,16,163,163,0,0,0-5.84,18.57c-4.81,17.52-9.11,26.82-18.21,39.19-8.08,11.19-9.27,16.17-6.37,28.71,7.23,31.6,19.76,44.34,72.16,74.07,27.48,15.64,41.56,24.41,51.89,32.14,7.92,5.83,8.08,6.2,7.39,10.65-1.55,10.33,5,21.48,17.88,30.59,3.26,2.25,5.31,4.65,5.31,6.37,0,3.1,8.78,7.39,15.11,7.39,3.59,0,6.37-1.55,13.76-7.23Zm211.87-57.57c19.93.7,21-.85,10.33-13.22-11.18-12.9-14.25-23.36-10.12-34.88l1.71-4.46-7.06-3.43a70.92,70.92,0,0,0-7.23-3.26c-1.18,4.65-2.4,9.11-3.43,13.76-2.57,10.49-5.67,37.65-5.84,49.16,0,1,1.72.7,4.66-1.19,4.12-2.4,6.2-2.73,17-2.4Zm-67.18-1c12-.69,24.41-1.55,27.68-2.07l6-.86.7-19.76c1-28.17,5.14-44.83,17.35-71.49,8.57-18.9,12.37-35.4,10.49-47.77-.7-5.31-1-5.68-8.25-8.78a189.87,189.87,0,0,0-41.07-11.18c-13.56-1.88-53.45-.86-68.39,2.08-6.21,1-17.53,3.43-25.08,5.31-18.74,4.29-28.7,3.79-43-2.41-14.09-6.2-23-11.84-31.45-19.76-6.69-6.2-7.38-6.53-9.1-4.45-1.39,1.55-2.08,6.2-2.58,16.16-.52,15.31-2.94,23.36-9.63,34.18a42.33,42.33,0,0,0-3.8,7.06c0,.52,5.14,6.53,11.52,13.06,22,22.86,32.82,28.71,50.17,27.49,5.68-.52,9.64-.33,9.64.33,0,1.39-11.19,10.13-15.81,12.54-2.24,1.19-2.73,2.41-2.4,5l2.73,18.05c1.55,10.33,2.74,15.11,4.29,16.5,4.13,3.43,25.44,14.44,38.83,19.92,17.52,7.06,27.16,9.64,40.54,10.82,16.5,1.39,16.83,1.39,40.55,0Zm-141.75-18.91c.33-.52-.86-10.49-3.11-22-2.73-15.64-4.28-21.31-6-22.86-1.19-1-7.56-5.51-13.92-10.12a219.2,219.2,0,0,1-23.73-19.76l-11.84-11.68-6.37,3.26-6.7,3.6a30.61,30.61,0,0,0,2.74,7.71c1.88,4.13,5.68,14.26,8.41,22.51,7.23,21.48,12.9,31.8,27.16,50.5l5.31,7.06,10.12,1.55a119.38,119.38,0,0,1,12.9,2.58c2.41,1,2.74.52,3.43-5a53.69,53.69,0,0,1,1.55-7.39Zm217.71-213.75c8.78-.85,10.33-2.07,6.53-6-2.4-2.4-7.91-2.57-12.37-.52-2.94,1.39-3.59,1-8.24-4-4.82-5.31-5.14-5.51-11.18-4.81-5.51.69-6.37.52-7.06-1.71a44.27,44.27,0,0,0-7.92-10A37.94,37.94,0,0,0,1632,1997c-10.66-4.13-16.65-3.59-26.82,2.07-29.39,16-28.17,15.81-56.55,8.58-26.46-6.69-46.22-13.56-52.59-17.88-5.31-3.59-16.66-7.56-26.13-8.78-7.06-1-11.51.53-18.21,6l-3.59,2.94,3.26,5.68c4.46,7.92,4,8.41-2.74,2.57-7.22-6-15.8-10.12-21.3-10.32-4,0-15.64,5.14-17,7.38-.52.7,3.11,1.55,7.93,1.88a69.57,69.57,0,0,1,16.49,4.13c12,5.14,18.21,6.86,29.2,7.92,12,1.19,33.85-.16,36.42-2.24,1.39-1.19,5.15-1.39,13.07-.7,10.49.7,14.78,1.71,39.69,8.42,14.44,4,24.58,3.59,41.77-1a198.17,198.17,0,0,1,22-5c7.06-.7,8.41-.33,19.43,4.65,17.52,7.92,26.82,12.9,32,17.52,5.14,4.46,5.83,4.46,18.21,3.43Zm-98-30.05,10.49-5.51-.33-10.66c-.16-7.39-.53-14.61-.86-21.81l-.85-11-10.49,8.09c-6.21,4.81-12.21,8.41-14.78,8.94-7.56,1.39-44.84,0-48.3-1.88a101.33,101.33,0,0,1-12.9-11.35l-9.63-9.79-.16,5.83a67.19,67.19,0,0,1-1,11.68c-.85,6.2-.85,6.37,5.84,14.78,3.59,4.65,6.53,8.77,6.53,9.26,0,3.27,49.65,18.75,60.84,18.91,3.59,0,8.07-1.54,15.63-5.5Zm-19.93-39c12.37-2.4,18.38-11.34,23-34,4.81-24.41,7.23-62.71,5-79-2.07-14.77-18.57-21.31-50-20.29-19.6.7-27.68,2.58-34.38,8.24-4.12,3.44-4.12,3.8-6,20.09-3.43,31.28,1.72,75.78,10.66,92.44,4.29,8.09,8.09,11,16,12.37,8.94,1.55,28,1.55,35.73.16Z"/><g id="_5151e0c8492e5103c096af88a51f17e3" data-name=" 5151e0c8492e5103c096af88a51f17e3"><path class="cls-2" d="M9229.77,3099.81v349s-12.7,43.58-32.22,54.95l-301.39,174a63.38,63.38,0,0,1-63.35,0l-100.63-59.53c-15-8.39-7.69-11.37-2.74-13.14,20.06-6.93,24.1-8.55,45.5-20.63a7.72,7.72,0,0,1,7.5.55l77.32,45.89a9.71,9.71,0,0,0,9.38,0l301.42-174c2.8-1.61,4.69-8.14,4.69-8.14V3099.71a9.72,9.72,0,0,0-4.7-8.33l-301.84-174.09a9.4,9.4,0,0,0-9.3,0L8557.7,3091.42a9.74,9.74,0,0,0-4.77,8.29v349.7a9.24,9.24,0,0,0,4.75,8.05l82.71,47.85c44.86,22.43,72.35-4,72.35-30.59V3130.47a8.7,8.7,0,0,1,8.69-8.71h38.92a8.74,8.74,0,0,1,8.8,8.69h0v344.35c0,59.93-32.74,94.3-89.71,94.3-17.5,0-31.3,0-69.86-18.89l-79.42-45.63a63.7,63.7,0,0,1-31.75-55.09V3099.81a63.68,63.68,0,0,1,31.69-55.09l302.17-174.62a66.26,66.26,0,0,1,63.52,0L9198,3044.72A63.8,63.8,0,0,1,9229.77,3099.81Zm-261.23,313.34c-89.37,0-109-22.44-115.6-66.88a9.84,9.84,0,0,0-9.71-8.29h-43.66a9.7,9.7,0,0,0-9.74,9.7v.06c0,56.87,31,124.69,178.71,124.69,107,0,168.29-42.11,168.29-115.68,0-72.93-49.29-92.38-153-106.11-104.86-13.84-115.49-21-115.49-45.62,0-20.25,9-47.31,86.7-47.31,69.36,0,94.92,15,105.45,61.7a9.68,9.68,0,0,0,9.46,7.63h43.84a9.77,9.77,0,0,0,9.72-10.6c-6.79-80.61-60.3-118-168.47-118-96.28,0-153.71,40.65-153.71,108.74,0,73.92,57.15,94.36,149.6,103.46,110.55,10.84,119.13,27,119.13,48.75C9069.94,3397.07,9039.75,3413.15,8968.54,3413.15Z"/></g><g id="c133de6af664cd4f011a55de6b001a2b"><path class="cls-5" d="M269.24,2614.68v37.19H172V2534.59h97.25v42.91H214.9v37.19h54.34Zm98.61-40h38.69v-40H309.28v41.46c13,13.19,19.76,19.53,38.58,38.63H309.28v37.19h97.25V2613.3Zm140.16,0h38.68v-40H449.44v41.46c13,13.19,19.76,19.53,38.58,38.63H449.44v37.19h97.25V2613.3Zm165,134.43-58.9,638.11-255.25,68.65-255.23-68.65L44.77,2709.07ZM554.48,2837.79H159.41l9.52,77.23H368.69l-10.7,4.27-181.27,75.43,6,74.76H358.65l96.08.32-6.22,102.67L357.91,3198h0l-.76.2-87.39-22.06-5.32-63.75H182.61l10.63,123,164.67,48.69v-3h.28l160.31-46.8,20.81-239.24H358.55l.45-.17,187.65-80.26Z"/></g><g id="c133de6af664cd4f011a55de6b000d0b"><path class="cls-5" d="M8516.06,1449h40.52v42.31h37.64V1449h40.52v123.92h-40.52v-42.32h-37.64v42.32h-40.52Zm170.77,42.31H8652.1V1449h110v42.32h-34.73v84.62h-40.53Zm92.62-42.31h44.43l25.33,43.52,25.11-43.52h41.17v123.92H8875v-64.38l-28.6,46.24h-.7l-28.6-46.24v64.38h-37.63V1449Zm153.41,0h40.53v84.62h55v39.29h-95.52V1449Zm-474,181.34,57.19,669.8,256.63,74.39L9030,2300l57.26-669.69ZM8968.46,1789l-3.68,42.92-1.64,19h-302.2l7.23,84.63h288l-2,21.59-18.52,216.94L8934.5,2188l-162.61,46.76h2.64l-164.18-47.28-11.23-131h80.22l5.64,65.74,88.35,24.92h.35v-2l87.61-24.74,9.1-106.3H8598.33l-19.28-225.83-1.88-22H8970.4Z"/></g><path class="cls-5" d="M4779.83,4185.39l72.72.36s-135.39,162.54-146.45,175.79c-3.59,4.29-9,8.91-11.81,14.65-7,14.41-14.17,46-14.17,46l-66.45.3s10.38-33,9.95-50.59c-.38-15.35-9.22-30.7-14.19-46.1-5-15.59-11.83-46.1-11.83-46.1h68.45l9.43,33.45,104.21-127.87"/><path class="cls-5" d="M4642,4219.54c13.42,7.17,21.67,46.72,21.67,46.72l-108.47,1.93h-33.11l-39.95,154h-61.25s38-167.52,47-197.88c2.91-9.84,19.94-8.14,48.69-8.14h46.24c29.76,0,64.54-3.37,79.16,4.43m-285.58,75s1.91-9.93-6.48-21.42c-7.17-9.81-13.8-12.09-32.68-12.61-53.3-1.48-52.26,33.51-52.26,33.51Zm58.32-41c7.81,25-7.08,83.61-7.08,83.61s-77.74-1.15-120.32,0c-13.24.36-29.09-1.27-33,4.18-5.54,7.65,2,19.43,8.45,24.4,7.39,5.72,21.77,6.37,26.94,7,34.56,3.89,106.9,1,106.9,1L4384,4424s-102.22,4.54-153.35-6.27c-10.09-2.13-19.56-6.44-26-12.54-1.74-1.67-3.26-3.95-4.91-5.91a54.1,54.1,0,0,1-6.88-10.81c-11.68-27.57,1.36-80.39,14.15-108.69,1.49-3.28,3.35-7.44,5.31-11,2.46-4.41,4.53-9.38,6.49-12,1.31-1.82,2.95-3,4.32-4.7a71.68,71.68,0,0,1,5.12-5.75c4.72-4.84,10.08-8.28,16.52-12.54,21.3-14.13,59.86-25.11,106.17-20.91,17.43,1.59,43.77,7.1,56.62,23,3.44,4.26,5.15,12.68,7.08,18.82Zm-282.52-38.48,60-.31s-33,138.7-49.82,206.34h-68.75c-47.65,0-90.09,5.22-108.15-25-17.52-29.35-.79-77.61,7.06-110.4,5.54-23.21,17.24-70.64,17.24-70.64l61.55-.49s-17.42,74.1-24.67,111.1c-2.59,13.25-8,25.73-2.35,35.53,5.31,9.33,12.74,10,35.38,10.45,7.18.15,30.67,0,30.67,0L4132.86,4216m-278.4,99.13c6.23-19.61,15.31-40.86,14.16-58.53-1.25-18.9-19.14-36.1-30.67-39.72-34.75-10.87-67.29,4.33-80.22,16.73-16.73,16.05-22.39,34.8-28.31,60.62-4.41,19.17-8,39.4,0,54.35,14.2,26.42,58.49,20.65,106.17,20.91,7.08-16.82,12.93-35.69,18.87-54.36Zm82.59-77.35c6.79,43.77-19.28,92.09-37.23,134.1,18.31,1.46,34.35-.23,35.51,1,1.2,1.57-12.27,50.15-17,50.28-14.52.33-62.68.69-82.76.69-65.52,0-126.82,3.78-158.07-25.08-12.69-11.73-21.47-31.85-23.6-46-3.54-23.62.9-49.63,7.08-71.07,5.59-19.36,12.76-37.63,23.59-54.36,27.53-42.57,75.42-74.18,155.71-66.89,15.57,1.42,37.93,7.46,51.91,14.63,1,.51,4.34,2.89,5.12,3.31,18.87,10.64,36.07,36,39.71,59.4Zm-290-23.26c-4,16-7.91,34-12.08,49.81h-65.92c5.11-17.48,9-34.85,14.12-50.06,21.09,0,64.36.25,64.36.25m-80.4,65.22h63.18c-8.33,40.84-24.82,106.73-37.75,152.59-8.09,28.7-13.49,49.65-35.39,64.8-2,1.36-3.09.71-4.71,2.09-4,3.41-22.7,7.36-33,8.36-16.79,1.61-35.78.21-56.43-.16,5.4-17.5,11.51-38.51,16.32-54.19,50.33,5.4,51.6-36.75,61.34-77.34,5.64-23.45,22.72-86.75,26-96.16"/><path class="cls-5" d="M3418,4386.2l-1.37,3.13c-23.26,40.14-64.48,64.76-123.27,65.85-27.49.5-53.68-5.75-70.78-12.55-36.92-14.69-68-41.95-84.93-71.07-24.33-41.74-28.72-99.81,21.86-143.18.78,0-6.13,9.4-5.35,9.4l-1.39,4c-36.45,101.11,75.85,187.76,185,177.85,26.24-2.39,59.7-15.12,80.22-33.45"/><path class="cls-5" d="M3351.93,4344.39c27.46.16,56.15-11.21,73.14-27.17-14.86,33.42-57.89,54.91-115.6,48.07-48.32-5.73-94.34-48.81-99.08-92-3.47-31.41,8.88-50.16,29.25-72.9-7.08,11.89-9.72,21.07-10.38,26.92-7.75,68,61.26,116.71,122.67,117.06"/><path class="cls-5" d="M3422.31,4260c-4.27,8.68-28.85,25.07-39.71,27.12-43,8.11-70.51-10-84.94-30.5a89.6,89.6,0,0,1-6.82-13.58c-5.59-16.85-3-42.33,13.67-55.52-5,12.54-5.76,27.11-3.12,36.58,1.6,5.73,6.48,15.72,11.37,22,8.89,11.45,14.52,14.24,25.95,20.32a73.25,73.25,0,0,0,13.05,5.54c10.84,2.81,33.7,10.26,70.55-12"/><path class="cls-2" d="M6990.44,723.06l255-145.51-115.82-66.69L6874.79,657.57Zm267.14-297.64-116-66.72V490.79l116,66.74ZM7268.69,272l-115.92,66.68,115.92,66.69,115.9-66.71ZM6911.47,609.62l67.3-38.75v-291l-116,66.76v291ZM6851.36,193.2l-115.92,66.71,115.92,66.71,115.85-66.71Zm-128,86.77V729.59l255.43,146.78V743l-133.58-75.46c-.44-.31-.78-.65-1.24-.95s-.73-.56-1.07-.83l0-.07a7.19,7.19,0,0,1-1-1.19l0,0a4.46,4.46,0,0,1-.86-1.1l0,0h.23s-.39-.74-.58-1.23l0-.1c-.17-.36-.37-.78-.54-1.24l0-.07a3.46,3.46,0,0,0-.71-1.71v0a9.46,9.46,0,0,0,1-1.24v-311L6772.44,308ZM7257.6,729.68V597.32L7002.16,743.15V876.68ZM7396,490.8V358.66l-116,66.77V557.57Zm22.93-155a19.33,19.33,0,0,1,.47,2.91V497.54a11.56,11.56,0,0,1-5.79,10l0,0L7280,584.53v152a11.63,11.63,0,0,1-5.75,10l-.05,0-278,160.13a9.14,9.14,0,0,1-2,.81l-.08,0-.73.31a10.21,10.21,0,0,1-2.95.42,10.69,10.69,0,0,1-3-.44l.07,0a3.65,3.65,0,0,1-.95-.39l0,0a18.43,18.43,0,0,1-2-.81l.09.05L6706.72,746.56a11.61,11.61,0,0,1-5.82-10h0V260.07a10.91,10.91,0,0,1,.46-3.1l0,.07c.1-.36.32-.61.44-1a14.41,14.41,0,0,1,.74-1.86l0,.08a4.51,4.51,0,0,1,.71-1h0l1-1.39,1.14-.83c.44-.36.83-.73,1.27-1.05h-.34l139.25-80.26a11.34,11.34,0,0,1,5.77-1.57,11.52,11.52,0,0,1,5.83,1.59l-.05,0L6996.38,250a11.49,11.49,0,0,1,1.24,1h0l1.18.84c.39.44.61.92,1,1.39a5.33,5.33,0,0,1,.75,1l0,0a14.16,14.16,0,0,1,.71,1.68l0,.1.39,1a9.78,9.78,0,0,1,.44,2.89v.14h0V558.36l116-66.88V338.94a11.4,11.4,0,0,1,.41-3.05l0,.07c.09-.31.31-.61.39-1a12.5,12.5,0,0,1,.78-1.9l-.05.09c.22-.36.56-.61.78-1,.37-.46.66-.92,1-1.31a6.94,6.94,0,0,1,1.1-.86l0,0c.45-.31.81-.7,1.27-1h-.12l139.12-80.42a11.37,11.37,0,0,1,5.78-1.56,11.57,11.57,0,0,1,5.82,1.58l-.05,0,139.12,80.09c.49.31.83.65,1.3.95s.78.56,1.12.85.68.93,1.05,1.36a7.34,7.34,0,0,1,.73,1l0,0a10.21,10.21,0,0,1,.74,1.78l0,.07c.2.29.34.61-.07.95v.18h.49Z"/><path class="cls-1" d="M9598.76,150.16h-689.9V799.33h689.9ZM9187.69,712.77H9130.2v-215h-81.92V453.11h222.78v44.62h-83.37Zm332-78.41c0,51.34-42.24,83.83-110.73,83.83-65.64,0-107.11-29.62-110.35-75.57l-.19-2.87h55.33l.19,1.79c2.09,19.39,24.36,32.49,56.5,32.49,30.63,0,51.75-13.82,51.75-33.74v-.18c0-17.05-13.51-26.57-47.56-33.21l-28.92-5.56c-57.07-11-81.62-36.09-81.62-75.39v-.18c0-48.11,43.76-79.88,104.64-79.88,64.11,0,101.79,31.95,105.4,75.21l.19,2.34h-54l-.37-2.16c-3.24-18.49-22.26-31.41-51.18-31.41-28.35.17-47.19,12.38-47.19,31.77v.18c0,16.87,13.32,26.92,45.66,33.21l29.11,5.56c58,11.31,83.33,33.21,83.33,73.6v.17Z"/><path class="cls-2" d="M9566.29,4734c-2.7-.2-5.82-.33-9-.33a125.36,125.36,0,0,0-45.13,8.35l.85-.3c-4.11,1.65-10.68,1.65-11.24,6.87,2.27,2.17,2.6,5.76,4.5,8.78a63.62,63.62,0,0,0,14.1,16.63l.1.1c5.75,4.5,11.5,8.88,17.55,12.72,10.68,6.58,22.82,10.49,33.27,17.1,6,3.84,12,8.74,18.08,12.85,3,2,4.93,5.75,8.38,7.07V4823c-1.48-2.47-2.07-6.05-3.91-8.78-2.76-2.76-5.49-5.23-8.22-7.92a133.37,133.37,0,0,0-28.17-27.45l-.39-.27c-8.78-6-28-14.36-31.63-24.45l-.52-.59a112.27,112.27,0,0,0,19.69-4.58l-.79.24c9.34-2.47,17.88-1.94,27.51-4.34,4.34-1.12,13.28-3.85,13.28-3.85v-2.23c-4.94-4.94-8.63-11.66-13.73-16.26a363.23,363.23,0,0,0-43.94-33l-1.49-.89c-8.62-5.5-19.58-9.05-28.67-13.72-3.29-1.65-8.78-2.47-10.69-5.24a103.58,103.58,0,0,1-11.07-20.44l-.26-.73q-12.12-23.51-22.52-47.83a276.6,276.6,0,0,0-14.74-32.95l.75,1.55a279.49,279.49,0,0,0-104.94-102.11l-1.42-.73a129.3,129.3,0,0,0-34.4-11.16l-.82-.13c-6.88-.33-13.73-.83-20.58-1.12a99,99,0,0,1-12.83-9.75l.09.1c-15.63-9.88-56.09-31.27-67.61-3-7.41,17.84,11,35.45,17.35,44.51a127.09,127.09,0,0,1,13.66,19.91l.33.66c2,4.77,2.47,9.68,4.41,14.65a324.41,324.41,0,0,0,15.11,38.91l-.85-2a123.15,123.15,0,0,0,10.44,17.38l-.27-.4c2.2,3,6,4.41,6.88,9.35a77.55,77.55,0,0,0-6.26,20.08l-.06.46a119.88,119.88,0,0,0-5.63,36.61,121.52,121.52,0,0,0,13.92,56.62l-.33-.66c4.41,6.81,14.88,21.95,28.9,16.16,12.35-4.94,9.62-20.57,13.17-34.33.83-3.29.3-5.46,2-7.7v.39c3.85,7.74,7.74,15.13,11.27,22.87a156.6,156.6,0,0,0,35.29,36.57l.42.3c6.59,4.94,11.84,13.51,20.07,16.54v-.77h-.62a36.15,36.15,0,0,0-6.23-5.38l-.14-.07a143.33,143.33,0,0,1-14.14-16l-.26-.37a351.18,351.18,0,0,1-29.83-47.94l-1-2c-4.52-8.6-8.31-17.88-11.93-26.38-1.65-3.28-1.65-8.21-4.42-9.85a101.64,101.64,0,0,0-12.92,18.05l-.26.53a150.51,150.51,0,0,0-7.72,41.05v.36c-1.12.3-.56,0-1.12.59-8.79-2.13-11.83-11.22-15.12-18.87a116.63,116.63,0,0,1-7.09-40.39,117.81,117.81,0,0,1,4.85-33.63l-.2.85c1.95-5.74,10.18-23.86,6.89-29.37-1.71-5.22-7.15-8.2-10.18-12.43a100.29,100.29,0,0,1-9.62-16.87l-.27-.66c-6.59-15.32-9.89-32.32-17-47.65a144,144,0,0,0-14-21.33l.23.3a138.85,138.85,0,0,1-14.8-20.68l-.36-.66c-1.35-3-3.3-7.94-1.12-11.22a4.67,4.67,0,0,1,3.85-3.68h.56s13.77.22,17.33,1.86a141,141,0,0,1,27.71,14l-.53-.33c3.85,2.7,8,7.93,13,9.42h5.76c8.77,1.79,18.7.45,26.92,2.84a176.29,176.29,0,0,1,40.2,19.3l-.69-.43a246.43,246.43,0,0,1,85,92.57l.66,1.35c3.29,6.31,4.73,12.13,7.72,18.7,5.75,13.55,12.85,27.25,18.7,40.33a179.71,179.71,0,0,0,20,37.44l-.4-.59c4.11,5.75,20.61,8.74,28,11.73a187.53,187.53,0,0,1,20.09,8.25l-1.22-.52c9.43,5.75,18.63,12.33,27.51,18.63,4.5,3.13,18.21,10,19,15.52Zm-385.52,240.73c0,.5,0,1.05,0,1.61a60.06,60.06,0,0,1-21.15,45.84l-.1.06a83,83,0,0,1-52.51,18.62c-1.55,0-3.1,0-4.61-.13h.09a114.88,114.88,0,0,1-65.82-21.69l.34.23,9.86-19.81a110.14,110.14,0,0,0,49.33,13.65h.2c.9.07,1.93.1,3,.1a51.77,51.77,0,0,0,29.77-9.36l-.16.1a31.36,31.36,0,0,0,12.49-25.05v-.12c-.2-13.54-9.63-25.05-26.82-34.71-15.94-8.74-47.76-27-47.76-27a54.41,54.41,0,0,1-26-46.38,2.64,2.64,0,0,1,.65-2.07v.1a2.53,2.53,0,0,1-.65-2.07,56.25,56.25,0,0,1,19.26-42.44l.06-.06a72.31,72.31,0,0,1,46.88-17.13,10.22,10.22,0,0,0,3.39-.34h.86a106.29,106.29,0,0,1,56.86,17.5l-.39-.23-8.74,19.56c-12.86-5.78-43.62-9.22-43.62-9.22h-.27c-.79-.06-1.68-.1-2.6-.1a38.53,38.53,0,0,0-24.34,8.62l.06-.06a28.06,28.06,0,0,0-10.2,21.55h0c0,13.49,9.61,25.07,27.37,34.94,16.16,8.85,48.8,27.54,48.8,27.54a53.6,53.6,0,0,1,26.68,46.3c0,.6,0,1.22,0,1.81v-.1Zm68.24,17.11a137.52,137.52,0,0,1-14.2-61.34c0-3.52.14-7,.4-10.43l0,.47q0-85.83,52.17-85.87c.85-.06,1.88-.09,2.93-.09a43.87,43.87,0,0,1,37.11,20.44l.1.17a137.23,137.23,0,0,1,14.13,61.07c0,3.42-.13,6.8-.36,10.16l0-.46q0,86.51-52.17,86.58c-.89.06-1.9.1-2.92.1A43.91,43.91,0,0,1,9249,4992.2l-.1-.16Zm135.23,51-41.74-20.54a92.53,92.53,0,0,0,10.39-10.16l.1-.1a138.08,138.08,0,0,0,27-82.34q0-5.37-.39-10.65l0,.46q0-112.74-88.52-112.81c-1.31-.06-2.86-.1-4.4-.1a84,84,0,0,0-63.28,28.66l-.06.1a138.35,138.35,0,0,0-26.89,82.31q0,5.23.39,10.36l0-.46c-.3,3.31-.47,7.19-.47,11.11a134.08,134.08,0,0,0,24.33,77.21l-.29-.43a80.54,80.54,0,0,0,58.87,25.51q3.25,0,6.41-.26l-.29,0h1.05a105.18,105.18,0,0,0,29.48-4.2l-.72.19,54.44,31.72,14.79-25.54Zm137.27-4.73H9412.37V4810.64h36.82v198.55h72.32Zm-507.16-168.3c-9.44,68.42-31,130.25-62.62,185.64l1.31-2.53a81.82,81.82,0,0,1-64.69,44.05l-.33,0a64.39,64.39,0,0,1-23.63-5.82l-.3.17V5071.2a101.9,101.9,0,0,0,15.17,1.1h.9c.53,0,1.13,0,1.72,0a38.68,38.68,0,0,0,25.22-9.27l-.07,0a33.29,33.29,0,0,0,12.27-25v0a166,166,0,0,0-9.94-40.18l.4,1.13-42.15-130.53h38l29.87,98.17a136.11,136.11,0,0,1,8.78,46.05v.06h0c15.49-41.48,27.52-89.86,33.63-140.06l.3-2.91h36.13Zm-165,168.3H8811.4q-1.6-90.9-11.09-181.45H8800l-58,181.45h-29l-57.62-181.45H8655q-6.75,90.59-8,181.45h-34.59q3.39-121.29,16.85-227.47h47.22l54.84,167h.33l55.33-167h45q14.94,124.32,17.61,227.47Zm436.85-543h-.27a64.36,64.36,0,0,0-11.3,1.69l-.3-.06v-.32h1.18a62.4,62.4,0,0,0,8.85,12.12l-.07-.06c2.21,4.4,4.11,8.77,6.32,13.14l.56-.62a15.29,15.29,0,0,0,5.85-12,3.65,3.65,0,0,0-.34-1.75v.07c-1.41-1.94-1.64-3.85-3-5.76-1.64-2.75-5.16-4.1-7.39-6.27Z"/><path class="cls-2" d="M702.31,4315.05H971v21.35H727.23v160.17H956.8v21.35H725.45V4694.1H972.81v21.35H702.31Zm292.6,0h28.49l126.24,176.09,129-176.09,175.51-223.68-288.34,418.27,148.58,205.82h-29.6l-135.17-187.31-135.74,187.31h-29l149.7-205.82Zm330.27,21.35v-21.35h306.1v21.35h-140.6v379.06h-24.91V4336.4ZM366,4315.05h30.88l424.27,634.67L645.78,4715.84l-254.9-370.68v370.3H366V4315.05Zm1262.76,373a8.94,8.94,0,1,1,8.8-8.93A8.71,8.71,0,0,1,1628.72,4688.06Zm21-24.21h14c.19,7.14,5.73,11.94,13.86,11.94,9.08,0,14.24-5.16,14.24-14.82v-61.18H1706V4661c0,17.39-10.67,27.41-28.35,27.41C1661.08,4688.45,1649.71,4678.73,1649.71,4663.85Zm73.45,0h13.42c1.14,8.3,9.25,13.57,20.92,13.57,10.89,0,18.87-5.64,18.87-13.39,0-6.66-5.08-10.65-16.63-13.38l-11.25-2.73c-15.78-3.68-23-11.32-23-24.16,0-15.56,12.71-25.91,31.75-25.91,17.72,0,30.66,10.36,31.45,25.07h-13.19c-1.27-8.05-8.28-13.08-18.44-13.08-10.71,0-17.84,5.15-17.84,13,0,6.23,4.6,9.81,16,12.47l9.61,2.36c17.9,4.18,25.28,11.44,25.28,24.59,0,16.71-12.94,27.19-33.62,27.19C1737.13,4689.47,1724.13,4679.47,1723.16,4663.85Z"/><g id="_5151e0c8492e5103c096af88a51e2ea6" data-name="5151e0c8492e5103c096af88a51e2ea6"><path class="cls-2" d="M3159.65,338.49q8.14,9,3.88,31-4.46,22.91-17.18,32.69T3107.64,412h-26.15l16.05-82.57H3127Q3151.5,329.46,3159.65,338.49Zm-368.41-9h-29.45L2745.74,412h26.14q26,0,38.72-9.79t17.17-32.69q4.26-22-3.88-31T2791.24,329.45Zm530.37,55.76c0,108.82-167.71,197.05-374.59,197.05s-374.6-88.23-374.6-197S2740.14,188.15,2947,188.15,3321.61,276.38,3321.61,385.21Zm-458.73,13.4a89,89,0,0,0,9.54-26.53q6.85-35.22-10.33-54.88t-54.62-19.66h-82.61l-38.47,198h43.06L2739.66,443h36.68q24.47,0,40.26-5.14a76.22,76.22,0,0,0,28.72-17.24A88.46,88.46,0,0,0,2862.88,398.61Zm150.94,45,17.88-92q5.45-28.07-8.18-40.59T2974,298.49h-38l10.22-52.55h-42.31L2865.53,443h41.91l22.07-113.54h34.23q16.44,0,21.48,5.44t2.14,20.41l-17,87.69h43.51v.59Zm184-126.38q-17.16-19.67-54.62-19.66h-82.61l-38.49,198h43.07L3075.41,443h36.68q24.45,0,40.26-5.14a76.22,76.22,0,0,0,28.72-17.24,86.1,86.1,0,0,0,27.11-48.53Q3215,336.86,3197.85,317.2Z"/></g><path class="cls-2" d="M7935.38,687.16a355.12,355.12,0,0,0-62.05,4.37l2.15-.27c-53.13,8.54-63.09,28.24-63.76,64.91l-.88,48.42L7936,806.87l-.31,16.62-172.2-3.13-1.44-.05c-38-.69-70.14,26.17-77.86,62.39l-.1.51a234,234,0,0,0-10,64.27,239.54,239.54,0,0,0,8,66.26l-.38-1.7c8.21,37.7,29,64.81,65.31,65.47l43.07.78,1.05-58.09c1.78-43.3,36.91-77.5,79.64-77.48h.06L7996,945c34.66.34,63.17-27.68,63.81-62.86v-.55l2.2-120.94c-1.65-34.67-27.62-62.86-61.12-67.13l-.3,0a374.55,374.55,0,0,0-62.9-6.34l-2.41,0h.11Zm-68.16,38h.37A24.18,24.18,0,1,1,7843.32,749v-.18a23.91,23.91,0,0,1,23.9-23.65h0Z"/><path class="cls-2" d="M8075.93,826.05l-1,55.86c-1.28,43.81-36.48,78.67-79.49,79.05h.51l-124.77-2.27c-34.57.11-62.85,28.18-63.62,63.35l-2.2,120.89c-.62,34.38,28.44,55.15,61.27,65.64a201.6,201.6,0,0,0,62.22,10.82,205.64,205.64,0,0,0,64-8.94l-1.49.39c31.59-8.67,62.95-26.75,63.62-63.37l.88-48.37-125.16-2.28.29-16,187.05,3.41c36.26.66,50.24-24.81,63.57-63.13a215.91,215.91,0,0,0,10.78-64.26,220.17,220.17,0,0,0-8.83-66.14l.39,1.55c-8.29-36.83-25-64.73-61.23-65.39l-46.81-.85Zm-75.16,304.64h.37a24.18,24.18,0,1,1-24.27,23.75v-.24a23.77,23.77,0,0,1,23.9-23.52Z"/><polygon class="cls-2" points="3118.29 1340.07 3118.29 1510.17 3062.88 1510.17 3062.88 1313.43 3118.29 1340.07"/><path class="cls-2" d="M2341.75,1479.26l41.1,35.77L2556,1424.84l-17.89-43Zm721.13-109.59,139.28-72.3-23.6-40.72-115.69,57.47v55.55Z"/><path class="cls-2" d="M2670,1326.75v183.42h-52.05V1248.74Zm-328.21,152.51,41.1,35.77L2462,1317.15l-25.5-67.74Z"/><path class="cls-2" d="M2436.36,1249.9h54.14l100.28,261.95h-55.66Zm242.56,0,115.3,178.47v83l-175.8-261.43Zm214.36,0H2947v261.95h-53.74Zm170.67,47h-85v-48.69h198.25l28.21,48.69H3064Z"/><polyline class="cls-2" points="3361.76 1411.1 3361.76 1510.17 3308.03 1510.17 3308.03 1411.1"/><polygon class="cls-2" points="3400.11 1248.23 3308.35 1411.1 3362.64 1411.1 3457.84 1248.23 3400.11 1248.23"/><polygon class="cls-2" points="3308.7 1412.01 3214.33 1249.9 3273.69 1249.9 3337.24 1361.02 3308.7 1412.01"/><path class="cls-2" d="M2138.93,1279.86c0,36.15,22.45,57.85,67.36,69.26l47.56,11c42.62,9.9,68.5,34.25,68.5,73.82a76.7,76.7,0,0,1-15.6,47.57c0-39.58-20.55-60.89-69.64-73.82l-46.81-10.66c-37.67-8.37-66.6-28.54-66.6-71.54a75.68,75.68,0,0,1,15.23-45.67"/><polygon class="cls-2" points="2794.22 1415.39 2794.22 1249.9 2846.27 1249.9 2846.27 1511.85 2794.22 1511.85 2794.22 1415.39"/><path class="cls-2" d="M2277.44,1424.11c20.17,12.94,29.3,31.2,29.3,57.46-17.13,21.7-46.42,33.49-81,33.49-58.23,0-99.7-28.92-108.46-78.77h55.94c7.23,22.83,26.26,33.48,52.14,33.48,30.82.38,51.75-16.36,52.13-45.66M2138.93,1279c16.36-21.32,44.52-34.25,78.77-34.25,59.74,0,94,31.58,102.74,75.73h-54c-6.09-17.51-20.94-31.21-47.95-31.21-29.3.38-49.09,17.13-50.23,43.77C2148.62,1322.17,2138.17,1301,2138.93,1279Z"/><path class="cls-1" d="M2706.32,4542.82q-195.71,0-244.61,194.51,73.38-97.24,171.23-72.95c37.23,9.25,63.84,36.11,93.24,65.8,48,48.38,103.52,104.4,224.75,104.4q195.71,0,244.61-194.51-73.38,97.23-171.23,72.94c-37.23-9.24-63.84-36.1-93.29-65.79-47.94-48.44-103.42-104.4-224.7-104.4Zm-244.61,291.77q-195.72,0-244.61,194.51,73.38-97.31,171.22-72.94c37.24,9.25,63.85,36.1,93.3,65.8,48,48.38,103.47,104.4,224.74,104.4q195.72,0,244.62-194.51-73.39,97.23-171.23,72.94c-37.23-9.25-63.84-36.1-93.25-65.8C2638.47,4890.6,2582.94,4834.59,2461.71,4834.59Z"/><path class="cls-2" d="M6733.72,3765.35c-54.59,0-93.94,35.6-93.94,89s44.3,89,98.88,89c33,0,62.05-13.05,80.05-35.06l-37.82-21.85c-10,10.93-25.17,17.31-42.23,17.31-23.68,0-43.81-12.36-51.26-32.14h138.53a89,89,0,0,0,1.73-17.3C6827.66,3801,6788.3,3765.35,6733.72,3765.35ZM6687,3838.4c6.18-19.73,23.09-32.13,46.72-32.13s40.59,12.41,46.73,32.13Zm579.16-73.05c-54.59,0-93.94,35.6-93.94,89s44.3,89,98.88,89c33,0,62.05-13.05,80.05-35.06l-37.82-21.85c-10,10.93-25.17,17.31-42.23,17.31-23.68,0-43.8-12.36-51.26-32.14h138.53a89,89,0,0,0,1.73-17.3c0-53.35-39.36-89-93.94-89Zm-46.73,73.05c6.18-19.73,23.09-32.13,46.73-32.13s40.59,12.41,46.72,32.13Zm-193,16.79c0,29.67,19.39,49.44,49.45,49.44,20.36,0,35.65-9.24,43.51-24.32l38,21.9c-15.73,26.21-45.19,42-81.48,42-54.63,0-93.94-35.6-93.94-89s39.35-89,93.94-89c36.28,0,65.71,15.77,81.48,42l-38,21.91c-7.86-15.08-23.14-24.33-43.51-24.33C7045.84,3805.75,7026.41,3825.52,7026.41,3855.19Zm408.1-142.6v227.15h-43.69V3712.59Zm-1215.44-26.37,182.69,316.42H6036.38Zm456.75,26.37-137,237.33-137-237.33h51.37l85.63,148.33,85.63-148.33ZM6966.24,3772v47.91a55.5,55.5,0,0,0-15.67-2.43c-28.45,0-49,19.78-49,49.45v72.81h-43.68V3772h43.68v45.49C6901.59,3792.38,6930.53,3772,6966.24,3772Z"/><path class="cls-2" d="M6135.83,1166.18c0-183.4-148.86-332.25-332.26-332.25s-332.26,148.85-332.26,332.25,148.85,332.26,332.26,332.26S6135.83,1349.59,6135.83,1166.18ZM5803.57,867.49c165.13,0,298.7,133.56,298.7,298.69s-133.57,298.7-298.7,298.7-298.7-133.56-298.7-298.7S5638.44,867.49,5803.57,867.49Zm-66.12,458.84-101.34-272.78c16.28-1,34.89-2.66,34.89-2.66,14.29-1.66,12.63-33.56-2-32.89,0,0-42.87,3.32-70.77,3.32-5,0-11,0-17.28-.33,47.84-72.1,129.58-119.61,222.61-119.61a265.12,265.12,0,0,1,179.75,69.44c-19.93-2.66-48.18,11.63-48.18,47.18,0,21.93,12.63,40.53,26.25,62.46,10.3,17.94,16.61,40.54,16.61,73.43,0,44.52-42.19,148.85-42.19,148.85l-90-249.19c15.95-1,24.92-5.32,24.92-5.32,14.28-1.66,12.62-36.54-1.67-35.88,0,0-43.19,3.65-71.1,3.65-25.91,0-70.1-3.65-70.1-3.65-14.29-.66-15.95,35.22-1.67,35.88l27.91,2.66,37.22,101Zm200,71.44,86.72-231.59s22.26-56.15,13-126.59c20.93,37.88,31.23,80.41,31.23,126.59,0,98.35-51.83,185.4-130.91,231.59Zm-377.11-338.9,126.92,348.2c-88.71-43.19-148.52-135.56-148.52-240.89C5538.76,1127.64,5545.41,1092.09,5560.36,1058.87Zm247.53,150.51L5884,1417a237.75,237.75,0,0,1-80.41,14,243.62,243.62,0,0,1-68.45-10Z"/><path class="cls-2" d="M4308.13,188.13l6.33,0c5.75,0,11.49,0,17.24,0q9.33,0,18.65,0,18.24,0,36.48,0,14.84,0,29.66,0h12.87q40.26,0,80.52,0,36.78,0,73.56,0,37.83-.06,75.65,0,21.21,0,42.43,0,18.06,0,36.11,0,9.2,0,18.4,0,8.45,0,16.89,0c2,0,4.05,0,6.07,0,33.52-.22,62.21,12.82,86.27,35.83l2.93,2.61c19.13,17.7,31.73,44.89,34,70.72.15,4.72.17,9.41.15,14.13,0,2.68,0,2.68,0,5.42,0,4.9,0,9.81,0,14.71,0,5.31,0,10.62,0,15.94q0,15.57,0,31.14,0,12.66,0,25.33v11q0,34.37,0,68.73,0,31.41,0,62.81.06,32.31,0,64.6,0,18.12,0,36.23,0,15.42,0,30.83,0,7.86,0,15.72c0,5.69,0,11.37,0,17.07,0,1.63,0,3.27,0,5-.17,19.65-7.37,36.66-20.76,51.07-17.74,16.52-38.11,22.16-61.64,21.8-19.74-.76-36.86-11.8-50.33-25.66-2.38-3-4.62-6-6.75-9.16-.56-.68-1.11-1.37-1.68-2.07h-2.8c-.16-.83-.33-1.65-.49-2.5a21.15,21.15,0,0,0-4.34-8l-2.06-2.63-2.15-2.7-2.14-2.76c-1.82-2.3-3.74-4.52-5.67-6.72h-2.85c-.16-.83-.33-1.65-.49-2.5a21.43,21.43,0,0,0-4.34-8l-2.06-2.63c-.72-.89-1.42-1.78-2.16-2.7l-2.14-2.76c-1.82-2.3-3.74-4.52-5.67-6.72h-2.81c-.09-.75-.19-1.5-.29-2.27-1.57-4.73-4.58-8.14-7.7-11.95-1.41-1.77-2.83-3.53-4.24-5.29-.75-.94-1.51-1.87-2.28-2.84-4-5-8-10.12-11.91-15.21l-5-6.47-2.53-3.26q-5-6.37-9.92-12.74c-1.62-2.1-3.25-4.18-4.87-6.27q-6.36-8.16-12.71-16.32l-2.65-3.4-5-6.37-2.3-2.95-2-2.54q-3.44-4.49-6.81-9l-2.31-3.07-1.76-2.35v3.39q-.14,40.9-.32,81.82-.11,19.77-.16,39.57,0,17.25-.14,34.51-.06,9.12-.08,18.25,0,8.61-.07,17.23c0,2.09,0,4.18,0,6.27,0,33.35-9.88,61.6-33.18,85.69a113.6,113.6,0,0,1-28.87,21.11l-2.58,1.35c-17.72,8.68-34.56,10.36-53.89,10.26l-7.42,0q-10,0-20,0-10.5,0-21,0-17.64,0-35.28,0-20.33,0-40.65,0-17.52,0-35,0h-20.87q-9.82,0-19.63,0h-7.16c-34.79.17-64-11.69-89.32-35.85L4216,869.6c-19.1-17.6-31.66-45.19-33.66-70.93-.15-5.48-.18-11-.16-16.45,0-2.11,0-4.22,0-6.33q0-8.61,0-17.23,0-9.33,0-18.65,0-18.22,0-36.47,0-14.84,0-29.66v-4.27c0-2.86,0-5.73,0-8.59q0-40.24,0-80.5,0-36.76,0-73.54,0-37.83,0-75.63,0-21.21,0-42.42,0-18,0-36.11,0-9.19,0-18.4,0-8.44,0-16.88c0-2,0-4.05,0-6.07-.22-33.51,12.82-62.2,35.83-86.25.86-1,1.73-1.93,2.61-2.93C4243.12,197.76,4275.69,188,4308.13,188.13Zm-19.37,109.11c-4.54,6.68-6.14,11.67-6.15,19.74,0,1.68,0,3.36,0,5.09s0,3.68,0,5.58,0,4,0,5.93q0,8.16,0,16.31c0,5.87,0,11.73,0,17.6q0,17.24,0,34.47,0,14,0,28c0,26.47-.67,79.41-.67,79.41v8q0,34.74-.06,69.48-.06,35.67-.06,71.34,0,20,0,40,0,17.06,0,34.1,0,8.7,0,17.4,0,8,0,15.94c0,2.83,0,5.65,0,8.47.08,10,.87,16.75,6.36,25.22,7.11,6.92,13.69,8.78,23.47,8.81l2.81,0h9.29l6.67,0,18.1,0,15.11,0q17.81,0,35.62,0,18.38,0,36.77.07,15.77.06,31.56,0,9.42,0,18.85,0,8.86,0,17.72,0,3.26,0,6.51,0c3,0,5.91,0,8.86,0h5c4.05-.37,4.05-.37,6.67-2.81,2.28-5.08,2.16-10,2.1-15.41,0-1.82,0-1.82,0-3.68q0-6.12,0-12.22c0-2.92,0-5.84,0-8.75q0-9.45,0-18.87,0-14.93,0-29.87.07-31.73.09-63.45,0-34.18.1-68.37,0-14.83,0-29.65,0-9.26,0-18.51,0-4.28,0-8.55c-.08-26.24,2.16-48.42,21.11-68.31,15.3-14.91,33-22.76,54.58-23,21.3.94,39.38,8.21,54.11,23.83,7,8.07,13.31,16.61,19.66,25.19,4.18,5.64,8.52,11.13,12.93,16.58q8.54,10.58,16.81,21.34,7.45,9.72,15,19.38l2.51,3.22,7.67,9.85q15.06,19.32,30,38.72,10.42,13.51,21,27,2.6,3.35,5.16,6.7l2.69,3.5,2.46,3.22,2,2.33h1.41q.14-64.71.21-129.42,0-7.65,0-15.28v-2.45s0-32.84.07-49.26q.06-25.26.07-50.54,0-14.19.05-28.38,0-13.36,0-26.72,0-4.91,0-9.81c0-4.46,0-8.92,0-13.38,0-1.3,0-2.6,0-3.93-.05-7.14-.6-12.32-4.75-18.4-4.47-1.5-7.65-1.58-12.35-1.59a21.84,21.84,0,0,1-5.18-.45H4775a28,28,0,0,1-6.05.42q-8.34,0-16.67,0l-18,0q-19.65,0-39.3,0l-24.52,0c-22.63,0-45.27,0-67.9,1.07h-8.8l-8.82-1.4h-4.43c-23.65.29-47.31.26-71,.23q-36.42,0-72.84-.05l-40.92,0q-17.42,0-34.83,0-8.88,0-17.78,0-8.13,0-16.27,0c-2,0-3.93,0-5.88,0C4303.25,288.07,4303.25,288.07,4288.76,297.24Z"/></svg>